<mxfile host="app.diagrams.net" modified="2023-04-13T08:37:39.724Z" agent="Mozilla/5.0 (Macintosh; Intel Mac OS X 10_15_7) AppleWebKit/537.36 (KHTML, like Gecko) Chrome/112.0.0.0 Safari/537.36" etag="_3e11iBWcIg95_aWMCb9" version="21.1.7" type="github">
  <diagram name="PÃ¡gina-1" id="CtlrdSI2o06RTQfn9YSl">
    <mxGraphModel dx="954" dy="559" grid="1" gridSize="10" guides="1" tooltips="1" connect="1" arrows="1" fold="1" page="1" pageScale="1" pageWidth="827" pageHeight="1169" math="0" shadow="0">
      <root>
        <mxCell id="0" />
        <mxCell id="1" parent="0" />
        <mxCell id="yk47R2D5oQETQdjR1O5m-3" value="" style="image;points=[];aspect=fixed;html=1;align=center;shadow=0;dashed=0;image=img/lib/allied_telesis/computer_and_terminals/Personal_Computer_with_Server.svg;" vertex="1" parent="1">
          <mxGeometry x="384" y="19" width="62.400000000000006" height="62.400000000000006" as="geometry" />
        </mxCell>
        <mxCell id="yk47R2D5oQETQdjR1O5m-4" value="Gateway Server" style="shape=cylinder3;whiteSpace=wrap;html=1;boundedLbl=1;backgroundOutline=1;size=15;" vertex="1" parent="1">
          <mxGeometry x="389" y="109" width="60" height="80" as="geometry" />
        </mxCell>
        <mxCell id="yk47R2D5oQETQdjR1O5m-29" value="" style="group" vertex="1" connectable="0" parent="1">
          <mxGeometry x="550" y="280" width="153.39999999999998" height="150" as="geometry" />
        </mxCell>
        <mxCell id="yk47R2D5oQETQdjR1O5m-8" value="&amp;nbsp;Server" style="shape=cylinder3;whiteSpace=wrap;html=1;boundedLbl=1;backgroundOutline=1;size=15;" vertex="1" parent="yk47R2D5oQETQdjR1O5m-29">
          <mxGeometry x="93.39999999999998" width="60" height="80" as="geometry" />
        </mxCell>
        <mxCell id="yk47R2D5oQETQdjR1O5m-14" value="API" style="whiteSpace=wrap;html=1;aspect=fixed;" vertex="1" parent="yk47R2D5oQETQdjR1O5m-29">
          <mxGeometry x="15" y="15" width="50" height="50" as="geometry" />
        </mxCell>
        <mxCell id="yk47R2D5oQETQdjR1O5m-17" value="Database" style="shape=cube;whiteSpace=wrap;html=1;boundedLbl=1;backgroundOutline=1;darkOpacity=0.05;darkOpacity2=0.1;" vertex="1" parent="yk47R2D5oQETQdjR1O5m-29">
          <mxGeometry y="100" width="100" height="50" as="geometry" />
        </mxCell>
        <mxCell id="yk47R2D5oQETQdjR1O5m-24" value="" style="endArrow=classic;html=1;rounded=0;exitX=0;exitY=0;exitDx=40;exitDy=0;exitPerimeter=0;entryX=0.5;entryY=1;entryDx=0;entryDy=0;" edge="1" parent="yk47R2D5oQETQdjR1O5m-29" source="yk47R2D5oQETQdjR1O5m-17" target="yk47R2D5oQETQdjR1O5m-14">
          <mxGeometry width="50" height="50" relative="1" as="geometry">
            <mxPoint x="-69" y="20" as="sourcePoint" />
            <mxPoint x="-19" y="-30" as="targetPoint" />
          </mxGeometry>
        </mxCell>
        <mxCell id="yk47R2D5oQETQdjR1O5m-28" value="" style="endArrow=classic;startArrow=classic;html=1;rounded=0;exitX=1;exitY=0.5;exitDx=0;exitDy=0;entryX=0;entryY=0.5;entryDx=0;entryDy=0;entryPerimeter=0;" edge="1" parent="yk47R2D5oQETQdjR1O5m-29" source="yk47R2D5oQETQdjR1O5m-14" target="yk47R2D5oQETQdjR1O5m-8">
          <mxGeometry width="50" height="50" relative="1" as="geometry">
            <mxPoint x="-69" y="30" as="sourcePoint" />
            <mxPoint x="-19" y="-20" as="targetPoint" />
          </mxGeometry>
        </mxCell>
        <mxCell id="yk47R2D5oQETQdjR1O5m-60" value="&lt;b&gt;REST API&lt;/b&gt;" style="whiteSpace=wrap;html=1;aspect=fixed;fillColor=#fff2cc;strokeColor=#d6b656;" vertex="1" parent="yk47R2D5oQETQdjR1O5m-29">
          <mxGeometry x="-20" y="20" width="40" height="40" as="geometry" />
        </mxCell>
        <mxCell id="yk47R2D5oQETQdjR1O5m-30" value="" style="group" vertex="1" connectable="0" parent="1">
          <mxGeometry x="354" y="280" width="153.39999999999998" height="150" as="geometry" />
        </mxCell>
        <mxCell id="yk47R2D5oQETQdjR1O5m-31" value="&amp;nbsp;Server" style="shape=cylinder3;whiteSpace=wrap;html=1;boundedLbl=1;backgroundOutline=1;size=15;" vertex="1" parent="yk47R2D5oQETQdjR1O5m-30">
          <mxGeometry x="93.39999999999998" width="60" height="80" as="geometry" />
        </mxCell>
        <mxCell id="yk47R2D5oQETQdjR1O5m-32" value="API" style="whiteSpace=wrap;html=1;aspect=fixed;" vertex="1" parent="yk47R2D5oQETQdjR1O5m-30">
          <mxGeometry x="15" y="15" width="50" height="50" as="geometry" />
        </mxCell>
        <mxCell id="yk47R2D5oQETQdjR1O5m-33" value="Database" style="shape=cube;whiteSpace=wrap;html=1;boundedLbl=1;backgroundOutline=1;darkOpacity=0.05;darkOpacity2=0.1;" vertex="1" parent="yk47R2D5oQETQdjR1O5m-30">
          <mxGeometry y="100" width="100" height="50" as="geometry" />
        </mxCell>
        <mxCell id="yk47R2D5oQETQdjR1O5m-34" value="" style="endArrow=classic;html=1;rounded=0;exitX=0;exitY=0;exitDx=40;exitDy=0;exitPerimeter=0;entryX=0.5;entryY=1;entryDx=0;entryDy=0;" edge="1" parent="yk47R2D5oQETQdjR1O5m-30" source="yk47R2D5oQETQdjR1O5m-33" target="yk47R2D5oQETQdjR1O5m-32">
          <mxGeometry width="50" height="50" relative="1" as="geometry">
            <mxPoint x="-69" y="20" as="sourcePoint" />
            <mxPoint x="-19" y="-30" as="targetPoint" />
          </mxGeometry>
        </mxCell>
        <mxCell id="yk47R2D5oQETQdjR1O5m-35" value="" style="endArrow=classic;startArrow=classic;html=1;rounded=0;exitX=1;exitY=0.5;exitDx=0;exitDy=0;entryX=0;entryY=0.5;entryDx=0;entryDy=0;entryPerimeter=0;" edge="1" parent="yk47R2D5oQETQdjR1O5m-30" source="yk47R2D5oQETQdjR1O5m-32" target="yk47R2D5oQETQdjR1O5m-31">
          <mxGeometry width="50" height="50" relative="1" as="geometry">
            <mxPoint x="-69" y="30" as="sourcePoint" />
            <mxPoint x="-19" y="-20" as="targetPoint" />
          </mxGeometry>
        </mxCell>
        <mxCell id="yk47R2D5oQETQdjR1O5m-59" value="&lt;b&gt;REST API&lt;/b&gt;" style="whiteSpace=wrap;html=1;aspect=fixed;fillColor=#fff2cc;strokeColor=#d6b656;" vertex="1" parent="yk47R2D5oQETQdjR1O5m-30">
          <mxGeometry x="-20" y="20" width="40" height="40" as="geometry" />
        </mxCell>
        <mxCell id="yk47R2D5oQETQdjR1O5m-37" value="" style="group" vertex="1" connectable="0" parent="1">
          <mxGeometry x="160" y="280" width="153.39999999999998" height="150" as="geometry" />
        </mxCell>
        <mxCell id="yk47R2D5oQETQdjR1O5m-38" value="&amp;nbsp;Server" style="shape=cylinder3;whiteSpace=wrap;html=1;boundedLbl=1;backgroundOutline=1;size=15;" vertex="1" parent="yk47R2D5oQETQdjR1O5m-37">
          <mxGeometry x="93.39999999999998" width="60" height="80" as="geometry" />
        </mxCell>
        <mxCell id="yk47R2D5oQETQdjR1O5m-39" value="API" style="whiteSpace=wrap;html=1;aspect=fixed;" vertex="1" parent="yk47R2D5oQETQdjR1O5m-37">
          <mxGeometry x="15" y="15" width="50" height="50" as="geometry" />
        </mxCell>
        <mxCell id="yk47R2D5oQETQdjR1O5m-40" value="Database" style="shape=cube;whiteSpace=wrap;html=1;boundedLbl=1;backgroundOutline=1;darkOpacity=0.05;darkOpacity2=0.1;" vertex="1" parent="yk47R2D5oQETQdjR1O5m-37">
          <mxGeometry y="100" width="100" height="50" as="geometry" />
        </mxCell>
        <mxCell id="yk47R2D5oQETQdjR1O5m-41" value="" style="endArrow=classic;html=1;rounded=0;exitX=0;exitY=0;exitDx=40;exitDy=0;exitPerimeter=0;entryX=0.5;entryY=1;entryDx=0;entryDy=0;" edge="1" parent="yk47R2D5oQETQdjR1O5m-37" source="yk47R2D5oQETQdjR1O5m-40" target="yk47R2D5oQETQdjR1O5m-39">
          <mxGeometry width="50" height="50" relative="1" as="geometry">
            <mxPoint x="-69" y="20" as="sourcePoint" />
            <mxPoint x="-19" y="-30" as="targetPoint" />
          </mxGeometry>
        </mxCell>
        <mxCell id="yk47R2D5oQETQdjR1O5m-42" value="" style="endArrow=classic;startArrow=classic;html=1;rounded=0;exitX=1;exitY=0.5;exitDx=0;exitDy=0;entryX=0;entryY=0.5;entryDx=0;entryDy=0;entryPerimeter=0;" edge="1" parent="yk47R2D5oQETQdjR1O5m-37" source="yk47R2D5oQETQdjR1O5m-39" target="yk47R2D5oQETQdjR1O5m-38">
          <mxGeometry width="50" height="50" relative="1" as="geometry">
            <mxPoint x="-69" y="30" as="sourcePoint" />
            <mxPoint x="-19" y="-20" as="targetPoint" />
          </mxGeometry>
        </mxCell>
        <mxCell id="yk47R2D5oQETQdjR1O5m-58" value="&lt;b&gt;REST API&lt;/b&gt;" style="whiteSpace=wrap;html=1;aspect=fixed;fillColor=#fff2cc;strokeColor=#d6b656;" vertex="1" parent="yk47R2D5oQETQdjR1O5m-37">
          <mxGeometry x="-20" y="20" width="40" height="40" as="geometry" />
        </mxCell>
        <mxCell id="yk47R2D5oQETQdjR1O5m-43" value="Data aggregation" style="rounded=1;whiteSpace=wrap;html=1;" vertex="1" parent="1">
          <mxGeometry x="180" y="129" width="159" height="40" as="geometry" />
        </mxCell>
        <mxCell id="yk47R2D5oQETQdjR1O5m-50" value="" style="endArrow=none;dashed=1;html=1;dashPattern=1 3;strokeWidth=2;rounded=0;exitX=0.5;exitY=0;exitDx=0;exitDy=0;exitPerimeter=0;entryX=0;entryY=1;entryDx=0;entryDy=-15;entryPerimeter=0;" edge="1" parent="1" source="yk47R2D5oQETQdjR1O5m-38" target="yk47R2D5oQETQdjR1O5m-4">
          <mxGeometry width="50" height="50" relative="1" as="geometry">
            <mxPoint x="390" y="240" as="sourcePoint" />
            <mxPoint x="440" y="190" as="targetPoint" />
          </mxGeometry>
        </mxCell>
        <mxCell id="yk47R2D5oQETQdjR1O5m-51" value="" style="endArrow=none;dashed=1;html=1;dashPattern=1 3;strokeWidth=2;rounded=0;exitX=0.5;exitY=0;exitDx=0;exitDy=0;exitPerimeter=0;" edge="1" parent="1" source="yk47R2D5oQETQdjR1O5m-31">
          <mxGeometry width="50" height="50" relative="1" as="geometry">
            <mxPoint x="390" y="240" as="sourcePoint" />
            <mxPoint x="440" y="190" as="targetPoint" />
          </mxGeometry>
        </mxCell>
        <mxCell id="yk47R2D5oQETQdjR1O5m-52" value="" style="endArrow=none;dashed=1;html=1;dashPattern=1 3;strokeWidth=2;rounded=0;exitX=0.5;exitY=0;exitDx=0;exitDy=0;exitPerimeter=0;entryX=1;entryY=1;entryDx=0;entryDy=-15;entryPerimeter=0;" edge="1" parent="1" source="yk47R2D5oQETQdjR1O5m-8" target="yk47R2D5oQETQdjR1O5m-4">
          <mxGeometry width="50" height="50" relative="1" as="geometry">
            <mxPoint x="390" y="240" as="sourcePoint" />
            <mxPoint x="440" y="190" as="targetPoint" />
          </mxGeometry>
        </mxCell>
        <mxCell id="yk47R2D5oQETQdjR1O5m-53" value="" style="endArrow=classic;html=1;rounded=0;exitX=0.561;exitY=0.994;exitDx=0;exitDy=0;exitPerimeter=0;entryX=0.5;entryY=0;entryDx=0;entryDy=0;entryPerimeter=0;" edge="1" parent="1" source="yk47R2D5oQETQdjR1O5m-3" target="yk47R2D5oQETQdjR1O5m-4">
          <mxGeometry width="50" height="50" relative="1" as="geometry">
            <mxPoint x="390" y="240" as="sourcePoint" />
            <mxPoint x="440" y="190" as="targetPoint" />
          </mxGeometry>
        </mxCell>
        <mxCell id="yk47R2D5oQETQdjR1O5m-54" value="" style="endArrow=classic;html=1;rounded=0;entryX=1;entryY=0.5;entryDx=0;entryDy=0;exitX=0;exitY=0.5;exitDx=0;exitDy=0;exitPerimeter=0;" edge="1" parent="1" source="yk47R2D5oQETQdjR1O5m-4" target="yk47R2D5oQETQdjR1O5m-43">
          <mxGeometry width="50" height="50" relative="1" as="geometry">
            <mxPoint x="390" y="240" as="sourcePoint" />
            <mxPoint x="440" y="190" as="targetPoint" />
          </mxGeometry>
        </mxCell>
        <mxCell id="yk47R2D5oQETQdjR1O5m-55" value="" style="endArrow=classic;html=1;rounded=0;exitX=0.75;exitY=0;exitDx=0;exitDy=0;entryX=0.016;entryY=1.01;entryDx=0;entryDy=0;entryPerimeter=0;" edge="1" parent="1" source="yk47R2D5oQETQdjR1O5m-43" target="yk47R2D5oQETQdjR1O5m-3">
          <mxGeometry width="50" height="50" relative="1" as="geometry">
            <mxPoint x="390" y="240" as="sourcePoint" />
            <mxPoint x="440" y="190" as="targetPoint" />
          </mxGeometry>
        </mxCell>
        <mxCell id="yk47R2D5oQETQdjR1O5m-56" value="Web Service" style="text;html=1;strokeColor=none;fillColor=none;align=center;verticalAlign=middle;whiteSpace=wrap;rounded=0;" vertex="1" parent="1">
          <mxGeometry x="439.7" y="35.19999999999999" width="60" height="30" as="geometry" />
        </mxCell>
        <mxCell id="yk47R2D5oQETQdjR1O5m-57" value="&lt;b&gt;REST API&lt;/b&gt;" style="whiteSpace=wrap;html=1;aspect=fixed;fillColor=#fff2cc;strokeColor=#d6b656;" vertex="1" parent="1">
          <mxGeometry x="239.5" y="160" width="40" height="40" as="geometry" />
        </mxCell>
      </root>
    </mxGraphModel>
  </diagram>
</mxfile>
